<svg xmlns:svg="http://www.w3.org/2000/svg" xmlns="http://www.w3.org/2000/svg" viewBox="0 0 53 26">
	<g>
		<path
         id="by"
         style="fill:#ffffff;"
         d="M 49.360316,9.78772 47.990891,6.42014 H 47.297565 V 5.69237 h 2.062751 v 0.72777 h -0.499539 l 0.900032,2.30822 0.882805,-2.30822 H 50.092399 V 5.69237 h 2.019687 v 0.72777 h -0.620117 l -2.062751,5.30976 h -1.382344 v -0.71486 h 0.813903 z m -7.260539,0.0732 V 9.13315 h 0.740696 V 4.59854 H 42.099777 V 3.87076 h 1.54168 v 2.41157 q 0.615811,-0.70624 1.511536,-0.70624 0.861274,0 1.442634,0.59427 0.585666,0.58998 0.585666,1.55891 0,0.93018 -0.572747,1.56752 -0.568441,0.63304 -1.459859,0.63304 -0.499539,0 -0.912951,-0.21532 Q 43.822325,9.49919 43.641457,9.2365 v 0.62442 z m 1.567519,-2.07567 q 0,0.65026 0.396186,1.03353 0.400492,0.37896 0.921563,0.37896 0.546909,0 0.943095,-0.4048 0.396186,-0.4048 0.396186,-1.0852 0,-0.65888 -0.396186,-1.02061 -0.39188,-0.36604 -0.921564,-0.36604 -0.52107,0 -0.930175,0.37896 -0.409105,0.37465 -0.409105,1.0852 z" />
      <path
         id="the"
         style="fill:#ffffff;"
         d="m 52.043989,14.21548 h -2.804308 q 0.06201,0.46165 0.36518,0.74759 0.303169,0.28594 0.775147,0.28594 0.685574,0 1.085205,-0.55121 l 0.578776,0.25494 q -0.282498,0.43752 -0.733805,0.65112 -0.451308,0.21015 -0.943957,0.21015 -0.764811,0 -1.309136,-0.47542 -0.54088,-0.47887 -0.54088,-1.28847 0,-0.76826 0.5271,-1.26435 0.530545,-0.49609 1.216119,-0.49609 0.671793,0 1.216118,0.48575 0.54777,0.48232 0.568441,1.44005 z M 51.36875,13.74006 q -0.0689,-0.3514 -0.36518,-0.6339 -0.296278,-0.28594 -0.726915,-0.28594 -0.392741,0 -0.671794,0.25838 -0.279052,0.25494 -0.341064,0.66146 z m -6.411322,1.39527 v -3.62769 h -0.602892 v -0.58222 h 1.25746 v 1.83968 q 0.589111,-0.47542 1.119656,-0.47542 0.330729,0 0.544325,0.1378 0.213596,0.1378 0.289388,0.36518 0.07924,0.22393 0.07924,0.65801 v 1.68466 h 0.568441 v 0.58222 h -1.223009 v -2.0395 q 0,-0.37896 -0.02412,-0.50643 -0.02411,-0.12747 -0.134358,-0.21015 -0.106798,-0.0827 -0.254937,-0.0827 -0.378961,0 -0.964627,0.43063 v 1.82591 h 0.578776 v 0.58222 h -1.836236 v -0.58222 z m -2.669949,-2.17041 v -0.58223 h 0.434082 v -0.51332 l 0.654568,-0.59944 v 1.11276 h 0.616672 v 0.58223 h -0.616672 v 1.61919 q 0,0.3893 0.04134,0.48231 0.04479,0.0896 0.217041,0.0896 0.18259,0 0.35829,-0.0689 v 0.59601 q -0.251492,0.0896 -0.502984,0.0896 -0.299723,0 -0.485758,-0.13092 -0.186035,-0.13435 -0.234267,-0.33417 -0.04823,-0.19982 -0.04823,-0.68902 v -1.65364 z" />
      <path
         id="roadside"
         style="fill:#ffffff;"
         d="m 52.483201,23.03124 h -5.208129 q 0.115167,0.85735 0.678208,1.3884 0.563041,0.53105 1.439594,0.53105 1.27324,0 2.01543,-1.02371 l 1.074897,0.47347 Q 51.958549,25.21302 51.120386,25.60971 50.282222,26 49.367281,26 q -1.420399,0 -2.431314,-0.88295 -1.004516,-0.88935 -1.004516,-2.39293 0,-1.42679 0.978924,-2.34813 0.985321,-0.92134 2.258562,-0.92134 1.247647,0 2.258562,0.90214 1.017313,0.89575 1.055702,2.67445 z m -1.254046,-0.88295 q -0.127964,-0.65262 -0.678209,-1.17727 -0.550244,-0.53105 -1.350018,-0.53105 -0.729394,0 -1.247648,0.47986 -0.518254,0.47347 -0.633421,1.22846 z m -5.80316,2.59126 v 1.0813 H 43.097053 V 24.9123 q -0.908544,1.01092 -2.213775,1.01092 -1.209258,0 -2.1242,-0.82537 -0.914942,-0.82536 -0.914942,-2.34813 0,-1.52917 0.940535,-2.41212 0.940534,-0.88295 2.1242,-0.88295 1.254046,0 2.188182,0.99811 v -2.4505 h -1.190064 v -1.0813 h 2.405721 v 7.81859 z M 39.14297,22.71772 q 0,1.02372 0.575837,1.57396 0.582235,0.55024 1.388408,0.55024 0.780579,0 1.38201,-0.57583 0.607828,-0.58224 0.607828,-1.60595 0,-1.03011 -0.620625,-1.55476 -0.614226,-0.52465 -1.38201,-0.52465 -0.825366,0 -1.388407,0.62062 -0.563041,0.61423 -0.563041,1.51637 z m -4.497931,-5.19533 q 0,-0.29431 0.204742,-0.51185 0.21114,-0.21754 0.53105,-0.21754 0.300715,0 0.518254,0.21114 0.217538,0.21114 0.217538,0.51825 0,0.30712 -0.217538,0.52465 -0.217539,0.21114 -0.518254,0.21114 -0.307113,0 -0.524652,-0.21753 -0.21114,-0.21754 -0.21114,-0.51826 z m 0.172751,7.21716 V 20.70869 H 33.851663 V 19.6274 h 2.181784 v 5.11215 h 0.953331 v 1.0813 h -3.135115 v -1.0813 z m -6.865261,1.0813 v -2.1242 h 1.087693 v 0.20474 q 0.05758,0.43508 0.467068,0.7166 0.415883,0.28152 0.978924,0.28152 0.588633,0 0.940534,-0.20474 0.351901,-0.20475 0.351901,-0.56944 0,-0.3519 -0.294317,-0.51826 -0.287919,-0.16635 -1.151675,-0.30711 -1.279639,-0.21754 -1.829883,-0.6974 -0.543847,-0.48627 -0.543847,-1.25405 0,-0.77418 0.595032,-1.29243 0.595032,-0.52466 1.567558,-0.52466 0.876552,0 1.509973,0.3583 V 19.6274 h 1.081295 v 2.05382 H 31.63149 v -0.3775 q -0.492661,-0.76138 -1.433195,-0.76138 -0.479865,0 -0.793376,0.21114 -0.307113,0.20474 -0.307113,0.55024 0,0.3519 0.28152,0.48627 0.287919,0.12796 1.228453,0.27512 0.902145,0.14076 1.362815,0.33271 0.46067,0.18554 0.761385,0.62702 0.307114,0.43508 0.307114,1.01731 0,0.86376 -0.665412,1.37561 -0.659014,0.50546 -1.714716,0.50546 -0.99172,0 -1.618743,-0.44787 v 0.3455 z m -0.56944,-1.0813 v 1.0813 H 25.054147 V 24.9123 q -0.908543,1.01092 -2.213775,1.01092 -1.209258,0 -2.1242,-0.82537 -0.914941,-0.82536 -0.914941,-2.34813 0,-1.52917 0.940534,-2.41212 0.940534,-0.88295 2.1242,-0.88295 1.254046,0 2.188182,0.99811 v -2.4505 h -1.190064 v -1.0813 h 2.405721 v 7.81859 z m -6.283025,-2.02183 q 0,1.02372 0.575837,1.57396 0.582236,0.55024 1.388408,0.55024 0.78058,0 1.38201,-0.57583 0.607828,-0.58224 0.607828,-1.60595 0,-1.03011 -0.620625,-1.55476 -0.614226,-0.52465 -1.382009,-0.52465 -0.825367,0 -1.388408,0.62062 -0.563041,0.61423 -0.563041,1.51637 z m -2.047421,2.02183 v 1.0813 h -2.1242 v -0.75499 q -0.882951,0.85736 -1.970644,0.85736 -0.844561,0 -1.471584,-0.55025 -0.620625,-0.55024 -0.620625,-1.4076 0,-0.86375 0.659014,-1.43319 0.665412,-0.56944 1.599548,-0.56944 0.870155,0 1.682725,0.52465 v -0.61423 q 0,-0.47346 -0.08957,-0.72939 -0.08957,-0.25593 -0.42228,-0.46067 -0.326308,-0.20474 -0.857358,-0.20474 -0.914942,0 -1.324426,0.72939 l -1.164471,-0.30711 q 0.774181,-1.44599 2.674444,-1.44599 0.697403,0 1.202861,0.19194 0.511855,0.18555 0.761385,0.48626 0.249529,0.29432 0.332706,0.63982 0.08957,0.34551 0.08957,1.10049 v 2.86639 z M 16.806877,23.5175 q -0.786978,-0.61423 -1.59315,-0.61423 -0.505457,0 -0.844561,0.29432 -0.339105,0.29432 -0.339105,0.76138 0,0.43508 0.294317,0.7294 0.300715,0.29432 0.812571,0.29432 0.88295,0 1.669928,-0.7422 z M 5.238944,22.72412 q 0,-1.43319 0.946932,-2.34813 0.946933,-0.92134 2.309748,-0.92134 1.337222,0 2.296951,0.90854 0.959729,0.90214 0.959729,2.36093 0,1.45879 -0.959729,2.36733 Q 9.839245,26 8.495624,26 7.113614,26 6.17308,25.07866 5.238944,24.15732 5.238944,22.72412 Z m 1.286037,0 q 0,0.91494 0.569439,1.50358 0.575837,0.58223 1.401204,0.58223 0.838163,0 1.401204,-0.58863 0.56944,-0.59503 0.56944,-1.49718 0,-0.90854 -0.575838,-1.49717 -0.575837,-0.58864 -1.394806,-0.58864 -0.857358,0 -1.414001,0.60143 -0.556642,0.60143 -0.556642,1.48438 z M 1.310453,24.73955 V 20.70869 H 0.062806 V 19.6274 h 2.220173 v 1.3948 q 0.204742,-0.54384 0.569439,-0.90214 0.364697,-0.3583 0.767783,-0.47347 0.409484,-0.11517 1.113286,-0.11517 h 0.319909 v 1.22846 H 4.810265 q -0.927738,0 -1.388408,0.18555 -0.454272,0.18554 -0.678208,0.6782 Q 2.52611,22.1099 2.52611,23.37674 v 1.36281 h 1.350019 v 1.0813 H 0.062806 v -1.0813 z" />
      <path
         id="hope"
         d="M 0,0.2032 V 15.0118 H 2.962891 V 7.53523 c 0.24886,-0.18157 0.48341,-0.32877 0.6875,-0.41211 0.230305,-0.0922 0.451598,-0.13671 0.666015,-0.13671 0.317368,0 0.549193,0.0533 0.695313,0.13671 h 0.002 C 5.168175,7.20902 5.283866,7.34163 5.369188,7.54305 5.438528,7.70962 5.498005,8.00736 5.531297,8.42 v 0.002 c 0.03363,0.41065 0.05078,0.8233 0.05078,1.24024 v 5.34961 H 8.55864 V 14.84188 8.045 C 8.55864,6.71539 8.306769,5.69453 7.773483,4.99422 7.248729,4.29835 6.494628,3.94148 5.568405,3.94148 5.01699,3.94148 4.506955,4.07331 4.048874,4.33602 3.698719,4.53912 3.331176,4.86244 2.962937,5.1993 V 0.2032 Z m 14.480469,3.70118 c -1.44839,0 -2.610954,0.51705 -3.433594,1.54101 v 0.002 C 10.22967,6.47087 9.830078,7.86991 9.830078,9.62513 c 0,1.74284 0.397353,3.13872 1.208984,4.16797 v 0.002 h 0.002 c 0.818029,1.02451 1.981621,1.54102 3.439454,1.54102 1.457833,0 2.620391,-0.51623 3.433593,-1.54102 0.816645,-1.02921 1.219039,-2.42692 1.219039,-4.16992 0,-1.74285 -0.399595,-3.13872 -1.211226,-4.16797 C 17.113539,4.42647 15.947443,3.90448 14.480516,3.90448 Z m 20.441406,0 c -1.482432,0 -2.681634,0.53044 -3.542969,1.57812 -0.856117,1.04103 -1.277344,2.44882 -1.277344,4.19922 0,1.77027 0.447499,3.16013 1.357422,4.14062 0.910483,0.98109 2.224005,1.46875 3.898438,1.46875 0.648507,0 1.244323,-0.0704 1.785156,-0.21093 0.539292,-0.14019 1.109365,-0.36553 1.710937,-0.67383 l 0.0918,-0.0469 V 11.3985 h -0.529297 l -0.05078,0.0469 c -0.283808,0.27454 -0.679111,0.54049 -1.1875,0.78906 -0.498374,0.24369 -1.007381,0.36328 -1.535156,0.36328 -0.846272,0 -1.458842,-0.20755 -1.871094,-0.60351 -0.369004,-0.35827 -0.540991,-0.91471 -0.609375,-1.58594 H 39.09766 V 10.23837 9.06649 c 0,-1.63523 -0.338676,-2.90846 -1.041015,-3.80468 C 37.352792,4.35716 36.289581,3.90439 34.921879,3.90439 Z m -9.064407,0.0371 c -0.57516,0 -1.094442,0.13536 -1.544922,0.40625 -0.332292,0.20215 -0.652441,0.49101 -0.972656,0.78516 V 4.23055 H 20.377 V 17.942 h 2.96289 v -3.34036 c 0.256742,0.15444 0.513982,0.31022 0.765625,0.40625 0.351462,0.14056 0.767841,0.20899 1.25,0.20899 0.533016,-10e-6 1.037753,-0.13308 1.503906,-0.39454 0.46649,-0.26166 0.880585,-0.64661 1.242188,-1.14648 0.349268,-0.47838 0.626047,-1.07926 0.833985,-1.79883 v -0.002 c 0.213864,-0.72421 0.320313,-1.52378 0.320313,-2.39844 0,-1.68676 -0.28634,-3.02755 -0.876954,-4.01953 h 0.002 C 27.794627,4.46379 26.930666,3.94143 25.857516,3.94143 Z m 8.851516,2.39457 c 0.507267,0 0.842512,0.15367 1.066407,0.46093 0.200337,0.27494 0.295021,0.74857 0.332031,1.31055 h -2.960938 c 0.06183,-0.5834 0.188843,-1.06257 0.439453,-1.32031 0.294822,-0.30321 0.655387,-0.45117 1.123047,-0.45117 z M 14.480469,6.57823 c 0.228963,0 0.437287,0.0464 0.632812,0.14063 0.184641,0.089 0.347838,0.24179 0.490234,0.47461 v 0.002 h 0.002 c 0.140375,0.2239 0.257136,0.53734 0.341796,0.93945 0.08396,0.3988 0.126954,0.90417 0.126954,1.50977 0,0.65579 -0.04443,1.16658 -0.126954,1.52344 -0.07909,0.35621 -0.198016,0.65745 -0.355468,0.90429 h -0.002 v 0.002 c -0.136364,0.21891 -0.29492,0.36505 -0.480469,0.45508 -0.191885,0.089 -0.393005,0.13281 -0.607422,0.13281 -0.254058,0 -0.471352,-0.0501 -0.664062,-0.14844 v 0.002 c -0.184075,-0.0961 -0.345569,-0.2507 -0.488282,-0.47265 -0.144407,-0.22941 -0.262182,-0.54396 -0.341797,-0.94336 v -0.002 c -0.07959,-0.40697 -0.121093,-0.8918 -0.121093,-1.45312 0,-0.6295 0.04652,-1.14897 0.134765,-1.55273 v -0.002 c 0.09369,-0.40566 0.218482,-0.71709 0.361328,-0.93359 0.168127,-0.24353 0.334218,-0.39377 0.488282,-0.46289 0.175039,-0.0763 0.376239,-0.11524 0.609375,-0.11524 z m 10.205124,0.23242 c 0.543564,0 0.897947,0.19298 1.142579,0.60547 0.243926,0.41131 0.384765,1.12357 0.384765,2.125 0,1.02287 -0.17075,1.77276 -0.482421,2.25 -0.310682,0.47008 -0.757472,0.69532 -1.410157,0.69532 -0.187077,0 -0.375919,-0.0112 -0.56836,-0.0352 -0.147616,-0.0184 -0.280469,-0.0697 -0.412109,-0.125 V 7.29694 C 23.544999,7.1507 23.755279,7.02773 23.976609,6.94929 h 0.002 l 0.002,-0.002 c 0.245757,-0.0929 0.480019,-0.13672 0.705078,-0.13672 z"
         style="fill:#000000;" />
	</g>
</svg>
